<svg width="64" height="64" viewBox="0 0 64 64" fill="none" xmlns="http://www.w3.org/2000/svg">
<path d="M22.2505 44.7459C22.118 44.8181 21.9899 44.841 21.8663 44.8147C21.736 44.7763 21.6348 44.6909 21.5626 44.5584L15.155 32.7989C15.0829 32.6664 15.0659 32.5351 15.1043 32.4048C15.1427 32.2746 15.2281 32.1734 15.3606 32.1012L16.7876 31.3236C17.0405 31.1859 17.2835 31.2018 17.5165 31.3716L24.5462 35.9749L24.5253 27.5526C24.5211 27.2582 24.6394 27.0453 24.8802 26.9141L26.2892 26.1464C26.4217 26.0742 26.553 26.0573 26.6832 26.0957C26.8135 26.134 26.9147 26.2194 26.9868 26.3519L33.3945 38.1115C33.4666 38.2439 33.4835 38.3753 33.4452 38.5055C33.4003 38.6237 33.3116 38.7189 33.1791 38.7911L31.6617 39.6179C31.5413 39.6835 31.416 39.6971 31.2857 39.6587C31.1555 39.6204 31.0576 39.541 30.992 39.4205L26.7301 31.5989L26.8291 37.7999C26.8169 38.1502 26.6844 38.3942 26.4315 38.532L25.6909 38.9355C25.438 39.0733 25.1611 39.0524 24.8602 38.8728L19.7032 35.4277L23.9651 43.2494C24.0308 43.3698 24.0444 43.4951 24.006 43.6253C23.9797 43.749 23.9003 43.8469 23.7678 43.9191L22.2505 44.7459ZM36.874 36.7778C36.7536 36.8434 36.6282 36.857 36.498 36.8186C36.3678 36.7803 36.2699 36.7009 36.2042 36.5805L29.7966 24.8209C29.7244 24.6884 29.7015 24.5604 29.7278 24.4367C29.7662 24.3065 29.8516 24.2053 29.9841 24.1331L31.6279 23.2374C31.7604 23.1652 31.8857 23.1516 32.0039 23.1965C32.1341 23.2349 32.2353 23.3203 32.3075 23.4528L34.8469 28.1132L40.1757 25.2096L37.6363 20.5492C37.5641 20.4167 37.5412 20.2886 37.5675 20.165C37.6059 20.0347 37.6913 19.9335 37.8238 19.8613L39.4495 18.9755C39.582 18.9033 39.7134 18.8864 39.8436 18.9248C39.9738 18.9631 40.075 19.0486 40.1472 19.181L46.5548 30.9406C46.627 31.073 46.6439 31.2044 46.6055 31.3346C46.5606 31.4528 46.4719 31.548 46.3394 31.6202L44.7137 32.506C44.5933 32.5716 44.4679 32.5853 44.3377 32.5469C44.2075 32.5085 44.1096 32.4291 44.0439 32.3087L41.4061 27.4676L36.0773 30.3712L38.7151 35.2123C38.7807 35.3327 38.7944 35.4581 38.756 35.5883C38.7297 35.712 38.6503 35.8099 38.5178 35.8821L36.874 36.7778Z" fill="#FFBB0C"/>
<path d="M46.0431 15.0646C52.9826 13.1763 58.1796 13.3444 59.7129 16C62.4743 20.7829 52.3054 31.8237 37.0001 40.6603C21.6947 49.4968 7.04867 52.7829 4.28724 48C2.75428 45.3448 5.20612 40.7611 10.3094 35.6966M54.0001 32C54.0001 44.1503 44.1503 54 32.0001 54C19.8498 54 10.0001 44.1503 10.0001 32C10.0001 19.8497 19.8498 10 32.0001 10C44.1503 10 54.0001 19.8497 54.0001 32Z" stroke="#FFBB0C" stroke-width="4" stroke-linecap="round" stroke-linejoin="round"/>
</svg>