<svg width="100" height="100" viewBox="0 0 100 100" fill="none" xmlns="http://www.w3.org/2000/svg">
<path fill-rule="evenodd" clip-rule="evenodd" d="M71.9969 51.9989H67.9989C66.8939 51.9989 65.9989 51.1039 65.9989 49.9999C65.9989 48.8959 66.8939 47.9999 67.9989 47.9999H71.9969C73.1019 47.9999 73.9969 48.8959 73.9969 49.9999C73.9969 51.1039 73.1029 51.9989 71.9969 51.9989ZM64.1419 38.6879C63.3609 39.4689 62.0929 39.4689 61.3139 38.6879C60.5329 37.9069 60.5329 36.6409 61.3139 35.8599L64.1419 33.0319C64.9209 32.2509 66.1889 32.2509 66.9699 33.0319C67.7489 33.8129 67.7489 35.0789 66.9699 35.8599L64.1419 38.6879ZM50.0009 61.9979C43.3739 61.9979 38.0009 56.6259 38.0009 49.9999C38.0009 43.3729 43.3729 38.0009 50.0009 38.0009C56.6279 38.0009 61.9989 43.3729 61.9989 49.9999C61.9989 56.6259 56.6279 61.9979 50.0009 61.9979ZM50.0009 42.0009C45.5829 42.0009 42.0009 45.5819 42.0009 49.9999C42.0009 54.4169 45.5839 57.9989 50.0009 57.9989C54.4179 57.9989 57.9989 54.4169 57.9989 49.9999C57.9989 45.5819 54.4189 42.0009 50.0009 42.0009ZM50.0009 34.0019C48.8959 34.0019 48.0009 33.1059 48.0009 32.0019V28.0029C48.0009 26.8989 48.8959 26.0029 50.0009 26.0029C51.1049 26.0029 52.0009 26.8989 52.0009 28.0029V32.0019C52.0009 33.1059 51.1039 34.0019 50.0009 34.0019ZM35.8599 38.6879L33.0319 35.8599C32.2509 35.0789 32.2509 33.8129 33.0319 33.0319C33.8129 32.2509 35.0789 32.2509 35.8599 33.0319L38.6879 35.8599C39.4689 36.6409 39.4689 37.9069 38.6879 38.6879C37.9069 39.4689 36.6409 39.4689 35.8599 38.6879ZM34.0019 49.9999C34.0019 51.1039 33.1059 51.9989 32.0019 51.9989H28.0019C26.8979 51.9989 26.0029 51.1039 26.0029 49.9999C26.0029 48.8959 26.8989 47.9999 28.0019 47.9999H32.0019C33.1069 47.9999 34.0019 48.8959 34.0019 49.9999ZM35.8599 61.3119C36.6409 60.5319 37.9069 60.5319 38.6879 61.3119C39.4689 62.0929 39.4689 63.3599 38.6879 64.1399L35.8599 66.9679C35.0789 67.7489 33.8129 67.7489 33.0319 66.9679C32.2509 66.1879 32.2509 64.9209 33.0319 64.1399L35.8599 61.3119ZM50.0009 65.9979C51.1049 65.9979 52.0009 66.8929 52.0009 67.9969V71.9969C52.0009 73.1009 51.1049 73.9969 50.0009 73.9969C48.8959 73.9969 48.0009 73.1009 48.0009 71.9969V67.9969C48.0009 66.8929 48.8959 65.9979 50.0009 65.9979ZM64.1419 61.3119L66.9699 64.1399C67.7489 64.9209 67.7489 66.1879 66.9699 66.9679C66.1889 67.7489 64.9209 67.7489 64.1419 66.9679L61.3139 64.1399C60.5329 63.3599 60.5329 62.0929 61.3139 61.3119C62.0929 60.5309 63.3599 60.5309 64.1419 61.3119Z" fill="#231815"/>
</svg>
