<svg width="100" height="100" viewBox="0 0 100 100" fill="none" xmlns="http://www.w3.org/2000/svg">
<path fill-rule="evenodd" clip-rule="evenodd" d="M79.9412 43.641H75.9412C74.8372 43.641 73.9412 42.746 73.9412 41.641C73.9412 40.537 74.8372 39.643 75.9412 39.643H79.9412C81.0452 39.643 81.9412 40.538 81.9412 41.641C81.9412 42.746 81.0452 43.641 79.9412 43.641ZM72.0842 30.329C71.3032 31.11 70.0372 31.11 69.2562 30.329C68.4752 29.549 68.4752 28.282 69.2562 27.502L72.0842 24.674C72.8652 23.893 74.1312 23.893 74.9122 24.674C75.6932 25.454 75.6932 26.721 74.9122 27.502L72.0842 30.329ZM69.1372 45.936C70.8862 48.022 71.9432 50.706 71.9432 53.641C71.9432 60.266 66.5712 65.639 59.9442 65.639C57.1692 65.639 47.1432 65.639 43.9462 65.639C35.1112 65.639 27.9482 58.477 27.9482 49.641C27.9482 40.805 35.1112 33.643 43.9462 33.643C45.5182 33.643 47.0362 33.875 48.4692 34.297C50.6642 31.47 54.0872 29.643 57.9442 29.643C64.5712 29.643 69.9432 35.016 69.9432 41.641C69.9422 43.156 69.6492 44.602 69.1372 45.936ZM31.9472 49.641C31.9472 56.268 37.3182 61.639 43.9452 61.639C47.5612 61.639 56.9242 61.639 59.9432 61.639C64.3612 61.639 67.9422 58.057 67.9422 53.641C67.9422 49.223 64.3612 45.641 59.9432 45.641C58.3432 45.641 56.8602 46.123 55.6102 46.932C54.3792 41.616 49.6362 37.643 43.9452 37.643C37.3182 37.643 31.9472 43.014 31.9472 49.641ZM57.9432 33.643C55.7312 33.643 53.7282 34.541 52.2812 35.992C54.6212 37.428 56.5662 39.445 57.9102 41.846C58.5742 41.733 59.2472 41.641 59.9432 41.641C62.0682 41.641 64.0622 42.2 65.7932 43.168C65.8892 42.674 65.9432 42.164 65.9432 41.641C65.9432 37.225 62.3612 33.643 57.9432 33.643ZM57.9432 25.643C56.8392 25.643 55.9442 24.748 55.9442 23.644V19.645C55.9442 18.54 56.8402 17.645 57.9432 17.645C59.0482 17.645 59.9432 18.54 59.9432 19.645V23.644C59.9432 24.749 59.0492 25.643 57.9432 25.643ZM43.8032 30.329L40.9762 27.502C40.1952 26.721 40.1952 25.454 40.9762 24.674C41.7562 23.893 43.0232 23.893 43.8032 24.674L46.6312 27.502C47.4122 28.282 47.4122 29.549 46.6312 30.329C45.8512 31.11 44.5842 31.11 43.8032 30.329Z" fill="#231815"/>
</svg>
