<svg width="100" height="100" viewBox="0 0 100 100" fill="none" xmlns="http://www.w3.org/2000/svg">
<path fill-rule="evenodd" clip-rule="evenodd" d="M69.7632 46.7581C71.1312 48.7071 71.9422 51.0761 71.9422 53.6411C71.9422 60.2661 66.5712 65.6391 59.9442 65.6391C57.1692 65.6391 47.1432 65.6391 43.9462 65.6391C35.1102 65.6391 27.9482 58.4771 27.9482 49.6411C27.9482 40.8051 35.1102 33.6431 43.9462 33.6431C45.9482 33.6431 47.8602 34.0181 49.6262 34.6901C51.2612 30.0081 55.7042 26.6431 60.9442 26.6431C61.6992 26.6431 62.4352 26.7211 63.1512 26.8551C63.0202 27.4301 62.9442 28.0281 62.9442 28.6431C62.9442 33.0611 66.5252 36.6421 70.9422 36.6421C71.5582 36.6421 72.1552 36.5661 72.7312 36.4341C72.8642 37.1511 72.9422 37.8871 72.9422 38.6421C72.9412 41.7751 71.7302 44.6211 69.7632 46.7581ZM31.9472 49.6411C31.9472 56.2681 37.3182 61.6391 43.9452 61.6391C47.5612 61.6391 56.9242 61.6391 59.9432 61.6391C64.3612 61.6391 67.9422 58.0571 67.9422 53.6411C67.9422 49.2231 64.3612 45.6411 59.9432 45.6411C58.3432 45.6411 56.8602 46.1231 55.6092 46.9321C54.3782 41.6161 49.6362 37.6421 43.9452 37.6421C37.3182 37.6421 31.9472 43.0141 31.9472 49.6411ZM51.4962 35.5451C51.4972 35.5451 51.4982 35.5451 51.4982 35.5451C51.4982 35.5451 51.4972 35.5451 51.4962 35.5451ZM59.1552 30.8501C56.2552 31.5141 53.9802 33.7601 53.2302 36.6251C55.1482 37.9971 56.7532 39.7771 57.9102 41.8451C58.5742 41.7321 59.2472 41.6401 59.9432 41.6401C62.5612 41.6401 64.9762 42.4901 66.9482 43.9111C67.8062 42.9321 68.4332 41.7431 68.7342 40.4291C63.8812 39.5251 60.0592 35.7061 59.1552 30.8501Z" fill="#231815"/>
</svg>
