<svg width="100" height="100" viewBox="0 0 100 100" fill="none" xmlns="http://www.w3.org/2000/svg">
<path fill-rule="evenodd" clip-rule="evenodd" d="M43.9453 65.6391C35.1103 65.6391 27.9473 58.4771 27.9473 49.6411C27.9473 40.8051 35.1103 33.6431 43.9453 33.6431C49.9493 33.6431 55.1743 36.9551 57.9103 41.8461C58.5743 41.7331 59.2483 41.6411 59.9433 41.6411C66.5703 41.6411 71.9423 47.0141 71.9423 53.6411C71.9423 60.2661 66.5703 65.6391 59.9433 65.6391C57.1683 65.6391 47.1433 65.6391 43.9453 65.6391ZM59.9433 61.6391C64.3613 61.6391 67.9433 58.0571 67.9433 53.6411C67.9433 49.2231 64.3613 45.6411 59.9433 45.6411C58.3433 45.6411 56.8613 46.1221 55.6103 46.9321C54.3793 41.6161 49.6363 37.6421 43.9453 37.6421C37.3193 37.6421 31.9473 43.0141 31.9473 49.6411C31.9473 56.2671 37.3193 61.6391 43.9453 61.6391C47.5623 61.6391 56.9243 61.6391 59.9433 61.6391Z" fill="#231815"/>
</svg>
