<svg width="100" height="100" viewBox="0 0 100 100" fill="none" xmlns="http://www.w3.org/2000/svg">
<path fill-rule="evenodd" clip-rule="evenodd" d="M55.9999 45.5C53.5811 35.7306 42.9999 36.5 36.4999 38.5C36.4999 35.6698 35.682 38.1524 36.9713 35.8461C39.7073 30.9518 44.94 27.6431 50.9451 27.6431C56.9491 27.6431 62.1741 30.9551 64.9101 35.8461C65.5741 35.7331 66.2481 35.6411 66.9431 35.6411C73.5701 35.6411 78.9421 41.0141 78.9421 47.6411C78.9421 54.2661 74.5701 59.6391 67.9431 59.6391C66.4067 59.6391 71.8785 52.6411 66.4674 47.6411C61.0563 42.6411 56.3429 46.8855 55.9999 45.5ZM69.4999 55.5C73.9179 55.5 74.9431 52.0571 74.9431 47.6411C74.9431 43.2231 71.3611 39.6411 66.9431 39.6411C65.3431 39.6411 63.8611 40.1221 62.6101 40.9321C61.3791 35.6161 56.6361 31.6421 50.9451 31.6421C47.898 31.6421 45.1161 32.7782 42.9999 34.6499C40.5144 36.8484 41.9999 32.9206 41.9999 36.5C41.2715 37.5723 44.6063 36.1445 48.9999 37.4167C51.1949 38.0523 52.4143 41.9997 55.9999 42C64.6514 42.0007 72.9646 52.5212 69.4999 55.5Z" fill="#231815"/>
<path fill-rule="evenodd" clip-rule="evenodd" d="M43.9453 65.6391C35.1103 65.6391 27.9473 58.4771 27.9473 49.6411C27.9473 40.8051 35.1103 33.6431 43.9453 33.6431C49.9493 33.6431 55.1743 36.9551 57.9103 41.8461C58.5743 41.7331 59.2483 41.6411 59.9433 41.6411C66.5703 41.6411 71.9423 47.0141 71.9423 53.6411C71.9423 60.2661 66.5703 65.6391 59.9433 65.6391C57.1683 65.6391 47.1433 65.6391 43.9453 65.6391ZM59.9433 61.6391C64.3613 61.6391 67.9433 58.0571 67.9433 53.6411C67.9433 49.2231 64.3613 45.6411 59.9433 45.6411C58.3433 45.6411 56.8613 46.1221 55.6103 46.9321C54.3793 41.6161 49.6363 37.6421 43.9453 37.6421C37.3193 37.6421 31.9473 43.0141 31.9473 49.6411C31.9473 56.2671 37.3193 61.6391 43.9453 61.6391C47.5623 61.6391 56.9243 61.6391 59.9433 61.6391Z" fill="#231815"/>
</svg>
