<svg width="100" height="100" viewBox="0 0 100 100" fill="none" xmlns="http://www.w3.org/2000/svg">
<path fill-rule="evenodd" clip-rule="evenodd" d="M63.9433 64.9411V60.5601C66.3303 59.1751 67.9413 56.5991 67.9413 53.6401C67.9413 49.2221 64.3613 45.6401 59.9433 45.6401C58.3413 45.6401 56.8593 46.1211 55.6093 46.9311C54.3773 41.6151 49.6363 37.6411 43.9453 37.6411C37.3183 37.6411 31.9473 43.0131 31.9473 49.6401C31.9473 53.1891 33.4963 56.3691 35.9453 58.5661V63.4801C31.1683 60.7121 27.9473 55.5581 27.9473 49.6401C27.9473 40.8041 35.1093 33.6421 43.9453 33.6421C49.9493 33.6421 55.1743 36.9541 57.9103 41.8451C58.5743 41.7321 59.2463 41.6401 59.9433 41.6401C66.5703 41.6401 71.9413 47.0131 71.9413 53.6401C71.9413 58.8611 68.6003 63.2931 63.9433 64.9411ZM41.9453 53.6411C43.0493 53.6411 43.9453 54.5361 43.9453 55.6411V59.6391C43.9453 60.7441 43.0493 61.6391 41.9453 61.6391C40.8403 61.6391 39.9453 60.7441 39.9453 59.6391V55.6411C39.9453 54.5351 40.8403 53.6411 41.9453 53.6411ZM41.9453 65.6391C43.0493 65.6391 43.9453 66.5341 43.9453 67.6391V71.6371C43.9453 72.7421 43.0493 73.6371 41.9453 73.6371C40.8403 73.6371 39.9453 72.7421 39.9453 71.6371V67.6391C39.9453 66.5331 40.8403 65.6391 41.9453 65.6391ZM49.9433 57.6391C51.0483 57.6391 51.9433 58.5351 51.9433 59.6391V63.6391C51.9433 64.7431 51.0483 65.6391 49.9433 65.6391C48.8393 65.6391 47.9453 64.7431 47.9453 63.6391V59.6391C47.9453 58.5351 48.8403 57.6391 49.9433 57.6391ZM49.9433 69.6391C51.0483 69.6391 51.9433 70.5341 51.9433 71.6371V75.6371C51.9433 76.7421 51.0483 77.6371 49.9433 77.6371C48.8393 77.6371 47.9453 76.7421 47.9453 75.6371V71.6371C47.9453 70.5331 48.8403 69.6391 49.9433 69.6391ZM57.9433 53.6411C59.0473 53.6411 59.9433 54.5361 59.9433 55.6411V59.6391C59.9433 60.7441 59.0473 61.6391 57.9433 61.6391C56.8383 61.6391 55.9433 60.7441 55.9433 59.6391V55.6411C55.9433 54.5351 56.8383 53.6411 57.9433 53.6411ZM57.9433 65.6391C59.0473 65.6391 59.9433 66.5341 59.9433 67.6391V71.6371C59.9433 72.7421 59.0473 73.6371 57.9433 73.6371C56.8383 73.6371 55.9433 72.7421 55.9433 71.6371V67.6391C55.9433 66.5331 56.8383 65.6391 57.9433 65.6391Z" fill="#231815"/>
</svg>
