<svg width="100" height="100" viewBox="0 0 100 100" fill="none" xmlns="http://www.w3.org/2000/svg">
<path fill-rule="evenodd" clip-rule="evenodd" d="M79.9412 43.642H75.9412C74.8372 43.642 73.9412 42.747 73.9412 41.642C73.9412 40.538 74.8372 39.642 75.9412 39.642H79.9412C81.0452 39.642 81.9412 40.538 81.9412 41.642C81.9412 42.748 81.0452 43.642 79.9412 43.642ZM72.0842 30.33C71.3032 31.111 70.0372 31.111 69.2562 30.33C68.4752 29.55 68.4752 28.283 69.2562 27.502L72.0842 24.674C72.8652 23.894 74.1312 23.894 74.9122 24.674C75.6932 25.455 75.6932 26.722 74.9122 27.502L72.0842 30.33ZM69.1372 45.937C70.8872 48.021 71.9422 50.707 71.9422 53.641C71.9422 58.864 68.6002 63.293 63.9442 64.942V60.561C66.3332 59.178 67.9442 56.6 67.9442 53.641C67.9442 49.224 64.3622 45.642 59.9442 45.642C58.3442 45.642 56.8602 46.122 55.6102 46.933C54.3802 41.616 49.6372 37.643 43.9462 37.643C37.3192 37.643 31.9482 43.015 31.9482 49.641C31.9482 53.191 33.4992 56.369 35.9482 58.566V63.482C31.1712 60.714 27.9482 55.56 27.9482 49.641C27.9482 40.806 35.1102 33.644 43.9462 33.644C45.5182 33.644 47.0362 33.875 48.4692 34.298C50.6642 31.471 54.0862 29.644 57.9442 29.644C64.5712 29.644 69.9422 35.015 69.9422 41.642C69.9412 43.158 69.6502 44.602 69.1372 45.937ZM57.9432 33.644C55.7322 33.644 53.7282 34.542 52.2812 35.994C54.6212 37.429 56.5662 39.446 57.9102 41.848C58.5742 41.735 59.2482 41.643 59.9432 41.643C62.0682 41.643 64.0622 42.202 65.7932 43.17C65.8892 42.676 65.9432 42.166 65.9432 41.643C65.9432 37.224 62.3612 33.644 57.9432 33.644ZM57.9432 25.644C56.8392 25.644 55.9432 24.749 55.9432 23.644V19.645C55.9432 18.541 56.8392 17.646 57.9432 17.646C59.0482 17.646 59.9432 18.541 59.9432 19.645V23.644C59.9432 24.75 59.0492 25.644 57.9432 25.644ZM43.8032 30.33L40.9752 27.502C40.1962 26.722 40.1962 25.455 40.9752 24.674C41.7562 23.894 43.0242 23.894 43.8032 24.674L46.6312 27.502C47.4122 28.283 47.4122 29.55 46.6312 30.33C45.8502 31.111 44.5842 31.111 43.8032 30.33ZM41.9452 53.641C43.0502 53.641 43.9452 54.537 43.9452 55.641V71.639C43.9452 72.744 43.0502 73.639 41.9452 73.639C40.8412 73.639 39.9452 72.744 39.9452 71.639V55.641C39.9452 54.537 40.8422 53.641 41.9452 53.641ZM49.9452 57.641C51.0492 57.641 51.9452 58.536 51.9452 59.641V75.639C51.9452 76.743 51.0492 77.639 49.9452 77.639C48.8402 77.639 47.9452 76.743 47.9452 75.639V59.641C47.9452 58.535 48.8402 57.641 49.9452 57.641ZM57.9432 53.641C59.0482 53.641 59.9432 54.537 59.9432 55.641V71.639C59.9432 72.744 59.0482 73.639 57.9432 73.639C56.8392 73.639 55.9432 72.744 55.9432 71.639V55.641C55.9432 54.537 56.8402 53.641 57.9432 53.641Z" fill="#231815"/>
</svg>
