<svg width="100" height="100" viewBox="0 0 100 100" fill="none" xmlns="http://www.w3.org/2000/svg">
<path fill-rule="evenodd" clip-rule="evenodd" d="M50.0009 57.641C48.8959 57.641 48.0009 58.536 48.0009 59.641V75.639C48.0009 76.743 48.8959 77.639 50.0009 77.639C51.1049 77.639 52.0009 76.743 52.0009 75.639V59.641C52.0009 58.535 51.1039 57.641 50.0009 57.641ZM57.9989 53.641C56.8949 53.641 55.9999 54.537 55.9999 55.641V71.639C55.9999 72.744 56.8959 73.639 57.9989 73.639C59.1039 73.639 59.9989 72.744 59.9989 71.639V55.641C59.9989 54.537 59.1039 53.641 57.9989 53.641ZM42.0009 53.641C40.8969 53.641 40.0019 54.537 40.0019 55.641V71.639C40.0019 72.744 40.8979 73.639 42.0009 73.639C43.1059 73.639 44.0009 72.744 44.0009 71.639V55.641C44.0009 54.537 43.1059 53.641 42.0009 53.641ZM72.9969 38.642C72.9969 37.888 72.9189 37.152 72.7859 36.435C72.2099 36.567 71.6129 36.643 70.9979 36.643C66.5799 36.643 62.9989 33.062 62.9989 28.644C62.9989 28.029 63.0749 27.431 63.2059 26.856C62.4899 26.722 61.7549 26.644 60.9989 26.644C55.7589 26.644 51.3149 30.009 49.6809 34.691C47.9149 34.019 46.0029 33.644 44.0009 33.644C35.1659 33.644 28.0029 40.806 28.0029 49.641C28.0029 55.56 31.2259 60.715 36.0029 63.482V58.566C33.5529 56.369 32.0029 53.191 32.0029 49.641C32.0029 43.015 37.3739 37.643 44.0009 37.643C49.6919 37.643 54.4349 41.616 55.6659 46.933C56.9159 46.122 58.3989 45.642 59.9989 45.642C64.4169 45.642 67.9979 49.223 67.9979 53.641C67.9979 56.6 66.3879 59.178 63.9989 60.561V64.942C68.6549 63.294 71.9979 58.864 71.9979 53.641C71.9979 51.079 71.1869 48.708 69.8179 46.759C71.7859 44.621 72.9969 41.777 72.9969 38.642ZM67.0049 43.914C65.0319 42.49 62.6169 41.643 59.9989 41.643C59.3029 41.643 58.6299 41.735 57.9659 41.848C56.8099 39.78 55.2039 37.999 53.2869 36.627C54.0369 33.762 56.3109 31.516 59.2109 30.852C60.1149 35.707 63.9369 39.528 68.7899 40.432C68.4889 41.746 67.8619 42.933 67.0049 43.914Z" fill="#231815"/>
</svg>
