<svg width="100" height="100" viewBox="0 0 100 100" fill="none" xmlns="http://www.w3.org/2000/svg">
<path fill-rule="evenodd" clip-rule="evenodd" d="M79.9959 43.642H75.9969C74.8929 43.642 73.9969 42.747 73.9969 41.642C73.9969 40.538 74.8929 39.642 75.9969 39.642H79.9959C81.0999 39.642 81.9959 40.538 81.9959 41.642C81.9959 42.748 81.1009 43.642 79.9959 43.642ZM72.1399 30.33C71.3589 31.111 70.0929 31.111 69.3119 30.33C68.5309 29.549 68.5309 28.283 69.3119 27.502L72.1399 24.674C72.9209 23.893 74.1869 23.893 74.9679 24.674C75.7479 25.455 75.7479 26.721 74.9679 27.502L72.1399 30.33ZM69.1919 45.937C70.5339 47.537 71.4629 49.492 71.8249 51.641H71.8169C71.9259 52.293 71.9969 52.959 71.9969 53.641C71.9969 60.268 66.6249 65.641 59.9989 65.641C59.7189 65.641 59.3499 65.641 58.9369 65.641L62.5209 61.229C65.7019 60.172 67.9989 57.176 67.9989 53.641C67.9989 52.95 67.9009 52.282 67.7359 51.641C66.8469 48.193 63.7249 45.642 59.9999 45.642C58.3989 45.642 56.9169 46.122 55.6659 46.933C54.4349 41.617 49.6929 37.642 44.0019 37.642C37.3749 37.642 32.0029 43.015 32.0029 49.642C32.0029 50.324 32.0729 50.99 32.1839 51.641H32.1699C32.9339 56.19 36.2579 59.864 40.6079 61.147L39.2579 64.924C33.3549 63.094 28.9279 57.934 28.1419 51.641C28.0599 50.984 28.0039 50.32 28.0039 49.642C28.0039 40.806 35.1659 33.643 44.0019 33.643C45.5739 33.643 47.0909 33.875 48.5249 34.298C50.7199 31.47 54.1429 29.644 57.9999 29.644C64.6269 29.644 69.9989 35.015 69.9989 41.642C69.9979 43.158 69.7049 44.601 69.1919 45.937ZM57.9989 33.644C55.7869 33.644 53.7839 34.542 52.3369 35.995C54.6769 37.43 56.6219 39.446 57.9659 41.848C58.6299 41.735 59.3029 41.643 59.9989 41.643C62.1239 41.643 64.1169 42.202 65.8489 43.17C65.9449 42.676 65.9979 42.166 65.9979 41.643C65.9979 37.225 62.4169 33.644 57.9989 33.644ZM57.9989 25.645C56.8949 25.645 55.9989 24.749 55.9989 23.645V19.646C55.9989 18.542 56.8949 17.646 57.9989 17.646C59.1029 17.646 59.9989 18.542 59.9989 19.646V23.645C59.9989 24.749 59.1039 25.645 57.9989 25.645ZM43.8579 30.33L41.0309 27.502C40.2499 26.721 40.2499 25.455 41.0309 24.674C41.8109 23.893 43.0779 23.893 43.8579 24.674L46.6859 27.502C47.4669 28.283 47.4669 29.549 46.6859 30.33C45.9059 31.111 44.6399 31.111 43.8579 30.33ZM47.9999 51.641H57.9989L51.9999 61.641H58.9989L46.0009 77.639L49.6009 65.641H43.0009L47.9999 51.641Z" fill="#231815"/>
</svg>
