<svg width="100" height="100" viewBox="0 0 100 100" fill="none" xmlns="http://www.w3.org/2000/svg">
<path fill-rule="evenodd" clip-rule="evenodd" d="M75.9969 43.642H79.9959C81.1009 43.642 81.9959 42.748 81.9959 41.642C81.9959 40.538 81.0999 39.642 79.9959 39.642H75.9969C74.8929 39.642 73.9969 40.538 73.9969 41.642C73.9969 42.747 74.8929 43.642 75.9969 43.642ZM69.3119 30.33C70.0929 31.111 71.3589 31.111 72.1399 30.33L74.9679 27.502C75.7489 26.722 75.7489 25.455 74.9679 24.674C74.1869 23.894 72.9209 23.894 72.1399 24.674L69.3119 27.502C68.5309 28.283 68.5309 29.55 69.3119 30.33ZM71.9969 53.641C71.9969 50.708 70.9399 48.022 69.1919 45.938C69.7049 44.602 69.9969 43.158 69.9969 41.642C69.9969 35.015 64.6259 29.644 57.9989 29.644C54.1409 29.644 50.7189 31.471 48.5239 34.298C47.0899 33.875 45.5729 33.644 44.0009 33.644C35.1649 33.644 28.0029 40.807 28.0029 49.641C28.0029 51.026 28.1969 52.362 28.5269 53.641H28.5159C30.0499 59.592 34.9179 64.2 41.0139 65.352C41.0569 64.012 41.3889 62.68 42.0259 61.465C37.6819 60.745 34.1319 57.694 32.6949 53.641H32.6999C32.2569 52.389 32.0029 51.047 32.0029 49.641C32.0029 43.015 37.3739 37.643 44.0009 37.643C49.6919 37.643 54.4339 41.616 55.6649 46.934C56.9149 46.123 58.3979 45.643 59.9989 45.643C64.4169 45.643 67.9979 49.223 67.9979 53.641C67.9979 58.059 64.4169 61.641 59.9989 61.641H58.0559C58.6799 62.897 58.9989 64.268 58.9989 65.639H59.9989C66.6259 65.639 71.9969 60.268 71.9969 53.641ZM52.3369 35.994C53.7839 34.542 55.7859 33.644 57.9989 33.644C62.4169 33.644 65.9979 37.224 65.9979 41.643C65.9979 42.166 65.9449 42.676 65.8489 43.17C64.1169 42.202 62.1239 41.643 59.9989 41.643C59.3019 41.643 58.6299 41.735 57.9659 41.848C56.6219 39.446 54.6769 37.429 52.3369 35.994ZM55.9989 23.644C55.9989 24.749 56.8949 25.644 57.9989 25.644C59.1039 25.644 59.9989 24.75 59.9989 23.644V19.645C59.9989 18.541 59.1029 17.646 57.9989 17.646C56.8949 17.646 55.9989 18.541 55.9989 19.645V23.644ZM41.0299 27.502L43.8579 30.33C44.6399 31.111 45.9049 31.111 46.6859 30.33C47.4669 29.55 47.4669 28.283 46.6859 27.502L43.8579 24.674C43.0769 23.894 41.8109 23.894 41.0299 24.674C40.2489 25.455 40.2489 26.722 41.0299 27.502ZM45.999 58.9091C45.043 58.3581 43.82 58.6841 43.268 59.6411C42.716 60.5981 43.044 61.8201 44 62.3741L46.196 63.6421L44 64.9101C43.044 65.4621 42.717 66.6851 43.269 67.6421C43.82 68.5971 45.044 68.9251 46 68.3721L48.196 67.1041V69.6391C48.196 70.7441 49.092 71.6391 50.196 71.6391C51.299 71.6391 52.195 70.7441 52.195 69.6391V67.1041L54.391 68.3711C55.347 68.9241 56.57 68.5961 57.122 67.6411C57.675 66.6841 57.347 65.4621 56.391 64.9091L54.195 63.6411L56.39 62.3731C57.346 61.8211 57.674 60.5981 57.121 59.6411C56.57 58.6841 55.346 58.3581 54.39 58.9091L52.194 60.1771V57.6421C52.194 56.5381 51.299 55.6421 50.195 55.6421C49.091 55.6421 48.195 56.5381 48.195 57.6421V60.1771L45.999 58.9091ZM50.196 65.6411C51.3 65.6411 52.195 64.7451 52.195 63.6411C52.195 62.5361 51.299 61.6411 50.196 61.6411C49.092 61.6411 48.196 62.5361 48.196 63.6411C48.196 64.7441 49.091 65.6411 50.196 65.6411Z" fill="#231815"/>
</svg>
