<svg width="100" height="100" viewBox="0 0 100 100" fill="none" xmlns="http://www.w3.org/2000/svg">
<path fill-rule="evenodd" clip-rule="evenodd" d="M69.8179 46.7591C71.1869 48.7081 71.9979 51.0781 71.9979 53.6401C71.9979 58.8631 68.6559 63.2921 63.9989 64.9431V60.5621C66.3879 59.1771 67.9979 56.5991 67.9979 53.6401C67.9979 49.2231 64.4169 45.6411 59.9989 45.6411C58.3989 45.6411 56.9159 46.1211 55.6659 46.9321C54.4339 41.6151 49.6919 37.6411 44.0009 37.6411C37.3749 37.6411 32.0029 43.0141 32.0029 49.6411C32.0029 53.1901 33.5529 56.3701 36.0019 58.5651V63.4811C31.2259 60.7131 28.0029 55.5591 28.0029 49.6411C28.0029 40.8061 35.1659 33.6421 44.0009 33.6421C46.0029 33.6421 47.9149 34.0181 49.6809 34.6901C51.3159 30.0081 55.7589 26.6431 60.9989 26.6431C61.7539 26.6431 62.4899 26.7211 63.2069 26.8541C63.0749 27.4301 62.9989 28.0281 62.9989 28.6431C62.9989 33.0611 66.5799 36.6411 70.9979 36.6411C71.6129 36.6411 72.2099 36.5661 72.7859 36.4341C72.9199 37.1511 72.9979 37.8871 72.9979 38.6411C72.9979 41.7771 71.7859 44.6211 69.8179 46.7591ZM59.2109 30.8521C56.3109 31.5161 54.0369 33.7621 53.2869 36.6271C55.2039 37.9991 56.8089 39.7791 57.9659 41.8481C58.6299 41.7351 59.3029 41.6431 59.9989 41.6431C62.6169 41.6431 65.0319 42.4901 67.0039 43.9141C67.8629 42.9341 68.4899 41.7471 68.7899 40.4321C63.9359 39.5271 60.1149 35.7061 59.2109 30.8521ZM43.0729 59.6411C43.6249 58.6841 44.8479 58.3581 45.8039 58.9091L47.9999 60.1771V57.6421C47.9999 56.5381 48.8959 55.6421 49.9999 55.6421C51.1039 55.6421 51.9989 56.5381 51.9989 57.6421V60.1771L54.1949 58.9091C55.1509 58.3581 56.3749 58.6841 56.9259 59.6411C57.4789 60.5981 57.1509 61.8211 56.1949 62.3731L53.9999 63.6411L56.1959 64.9091C57.1519 65.4621 57.4799 66.6841 56.9269 67.6411C56.3749 68.5961 55.1519 68.9241 54.1959 68.3711L51.9999 67.1041V69.6391C51.9999 70.7441 51.1039 71.6391 50.0009 71.6391C48.8969 71.6391 48.0009 70.7441 48.0009 69.6391V67.1041L45.8049 68.3721C44.8489 68.9251 43.6249 68.5971 43.0739 67.6421C42.5219 66.6851 42.8489 65.4621 43.8049 64.9101L46.0009 63.6421L43.8049 62.3741C42.8489 61.8201 42.5209 60.5981 43.0729 59.6411ZM50.0009 65.6411C51.1049 65.6411 51.9999 64.7451 51.9999 63.6411C51.9999 62.5361 51.1039 61.6411 50.0009 61.6411C48.8969 61.6411 48.0009 62.5361 48.0009 63.6411C48.0009 64.7441 48.8959 65.6411 50.0009 65.6411Z" fill="#231815"/>
</svg>
