<svg width="100" height="100" viewBox="0 0 100 100" fill="none" xmlns="http://www.w3.org/2000/svg">
<path fill-rule="evenodd" clip-rule="evenodd" d="M69.8189 46.758C70.4359 47.638 70.9209 48.612 71.2879 49.642H71.3069H66.9199C65.5359 47.253 62.9579 45.643 59.9989 45.643C58.3989 45.643 56.9169 46.123 55.6659 46.933C54.4349 41.617 49.6919 37.643 44.0009 37.643C37.3749 37.643 32.0029 43.015 32.0029 49.642H28.0029C28.0029 40.807 35.1659 33.644 44.0009 33.644C46.0039 33.644 47.9149 34.02 49.6809 34.692C51.3159 30.009 55.7599 26.645 60.9989 26.645C61.7549 26.645 62.4909 26.723 63.2069 26.856C63.0749 27.432 62.9989 28.029 62.9989 28.645C62.9989 33.063 66.5809 36.643 70.9979 36.643C71.6139 36.643 72.2099 36.567 72.7859 36.436C72.9199 37.153 72.9979 37.888 72.9979 38.643C72.9979 41.777 71.7859 44.621 69.8189 46.758ZM59.2119 30.852C56.3119 31.515 54.0369 33.762 53.2879 36.626C55.2039 37.998 56.8089 39.779 57.9659 41.848C58.6299 41.734 59.3039 41.643 59.9989 41.643C62.6179 41.643 65.0319 42.491 67.0049 43.914C67.8629 42.934 68.4899 41.745 68.7899 40.432C63.9369 39.527 60.1149 35.706 59.2119 30.852ZM30.0029 53.641H69.9989C71.1029 53.641 71.9979 54.537 71.9979 55.641C71.9979 56.745 71.1019 57.641 69.9989 57.641H30.0029C28.8989 57.641 28.0029 56.745 28.0029 55.641C28.0029 54.537 28.8989 53.641 30.0029 53.641ZM30.0029 61.641H69.9989C71.1029 61.641 71.9979 62.536 71.9979 63.64C71.9979 64.744 71.1019 65.64 69.9989 65.64H30.0029C28.8989 65.64 28.0029 64.744 28.0029 63.64C28.0029 62.536 28.8989 61.641 30.0029 61.641ZM30.0029 69.639H69.9989C71.1029 69.639 71.9979 70.535 71.9979 71.639C71.9979 72.743 71.1019 73.639 69.9989 73.639H30.0029C28.8989 73.639 28.0029 72.743 28.0029 71.639C28.0029 70.535 28.8989 69.639 30.0029 69.639Z" fill="#231815"/>
</svg>
